{
  "asset": {
    "version": "2.0",
    "generator": "THREE.GLTFExporter r180"
  },
  "scenes": [
    {
      "name": "Scene",
      "nodes": [
        0
      ]
    }
  ],
  "scene": 0,
  "nodes": [
    {
      "name": "DatabaseHaftUp.glb",
      "children": [
        1,
        2,
        3,
        4
      ]
    },
    {
      "name": "GlowTop",
      "extras": {
        "name": "GlowTop"
      },
      "mesh": 0
    },
    {
      "matrix": [
        1.100000023841858,
        0,
        0,
        0,
        0,
        0.3499999940395355,
        0,
        0,
        0,
        0,
        1.100000023841858,
        0,
        0,
        0,
        0,
        1
      ],
      "name": "Cylinder1Top",
      "extras": {
        "name": "Cylinder1Top"
      },
      "mesh": 1
    },
    {
      "matrix": [
        1.100000023841858,
        0,
        0,
        0,
        0,
        0.3499999940395355,
        0,
        0,
        0,
        0,
        1.100000023841858,
        0,
        0,
        1,
        0,
        1
      ],
      "name": "Cylinder2Top",
      "extras": {
        "name": "Cylinder2Top"
      },
      "mesh": 2
    },
    {
      "matrix": [
        1.100000023841858,
        0,
        0,
        0,
        0,
        0.3499999940395355,
        0,
        0,
        0,
        0,
        1.100000023841858,
        0,
        0,
        -1,
        0,
        1
      ],
      "name": "Cylinder3Top",
      "extras": {
        "name": "Cylinder3Top"
      },
      "mesh": 3
    }
  ],
  "bufferViews": [
    {
      "buffer": 0,
      "byteOffset": 0,
      "byteLength": 1464,
      "target": 34962,
      "byteStride": 12
    },
    {
      "buffer": 0,
      "byteOffset": 1464,
      "byteLength": 1464,
      "target": 34962,
      "byteStride": 12
    },
    {
      "buffer": 0,
      "byteOffset": 2928,
      "byteLength": 976,
      "target": 34962,
      "byteStride": 8
    },
    {
      "buffer": 0,
      "byteOffset": 3904,
      "byteLength": 672,
      "target": 34963
    },
    {
      "buffer": 0,
      "byteOffset": 4576,
      "byteLength": 1080,
      "target": 34962,
      "byteStride": 12
    },
    {
      "buffer": 0,
      "byteOffset": 5656,
      "byteLength": 1080,
      "target": 34962,
      "byteStride": 12
    },
    {
      "buffer": 0,
      "byteOffset": 6736,
      "byteLength": 720,
      "target": 34962,
      "byteStride": 8
    },
    {
      "buffer": 0,
      "byteOffset": 7456,
      "byteLength": 480,
      "target": 34963
    },
    {
      "buffer": 0,
      "byteOffset": 7936,
      "byteLength": 1632,
      "target": 34962,
      "byteStride": 12
    },
    {
      "buffer": 0,
      "byteOffset": 9568,
      "byteLength": 1632,
      "target": 34962,
      "byteStride": 12
    },
    {
      "buffer": 0,
      "byteOffset": 11200,
      "byteLength": 1088,
      "target": 34962,
      "byteStride": 8
    },
    {
      "buffer": 0,
      "byteOffset": 12288,
      "byteLength": 768,
      "target": 34963
    },
    {
      "buffer": 0,
      "byteOffset": 13056,
      "byteLength": 600,
      "target": 34962,
      "byteStride": 12
    },
    {
      "buffer": 0,
      "byteOffset": 13656,
      "byteLength": 600,
      "target": 34962,
      "byteStride": 12
    },
    {
      "buffer": 0,
      "byteOffset": 14256,
      "byteLength": 400,
      "target": 34962,
      "byteStride": 8
    },
    {
      "buffer": 0,
      "byteOffset": 14656,
      "byteLength": 264,
      "target": 34963
    }
  ],
  "buffers": [
    {
      "byteLength": 14920,
      "uri": "data:application/octet-stream;base64,"
    }
  ],
  "accessors": [
    {
      "bufferView": 0,
      "componentType": 5126,
      "count": 122,
      "max": [
        0.839099645614624,
        1,
        1
      ],
      "min": [
        -1,
        -1,
        -1
      ],
      "type": "VEC3"
    },
    {
      "bufferView": 1,
      "componentType": 5126,
      "count": 122,
      "max": [
        0.9034698605537415,
        0.6857031583786011,
        0.790560245513916
      ],
      "min": [
        -0.7278916835784912,
        -0.8430733680725098,
        -0.790560245513916
      ],
      "type": "VEC3"
    },
    {
      "bufferView": 2,
      "componentType": 5126,
      "count": 122,
      "max": [
        1,
        0.9900000095367432
      ],
      "min": [
        0,
        0
      ],
      "type": "VEC2"
    },
    {
      "bufferView": 3,
      "componentType": 5123,
      "count": 336,
      "max": [
        121
      ],
      "min": [
        0
      ],
      "type": "SCALAR"
    },
    {
      "bufferView": 4,
      "componentType": 5126,
      "count": 90,
      "max": [
        0.2693762183189392,
        1,
        1
      ],
      "min": [
        -0.9976100325584412,
        -1,
        -1
      ],
      "type": "VEC3"
    },
    {
      "bufferView": 5,
      "componentType": 5126,
      "count": 90,
      "max": [
        0.7198911905288696,
        0.6857031583786011,
        0.7980930209159851
      ],
      "min": [
        -0.7278916835784912,
        -0.6857031583786011,
        -0.7980930209159851
      ],
      "type": "VEC3"
    },
    {
      "bufferView": 6,
      "componentType": 5126,
      "count": 90,
      "max": [
        1,
        0.9900000095367432
      ],
      "min": [
        0,
        0
      ],
      "type": "VEC2"
    },
    {
      "bufferView": 7,
      "componentType": 5123,
      "count": 240,
      "max": [
        89
      ],
      "min": [
        0
      ],
      "type": "SCALAR"
    },
    {
      "bufferView": 8,
      "componentType": 5126,
      "count": 136,
      "max": [
        1.0003312826156616,
        1,
        1
      ],
      "min": [
        -0.9996686577796936,
        -1,
        -1
      ],
      "type": "VEC3"
    },
    {
      "bufferView": 9,
      "componentType": 5126,
      "count": 136,
      "max": [
        0.9949367046356201,
        0.6857031583786011,
        0.7278916835784912
      ],
      "min": [
        -0.7278916835784912,
        -0.6857031583786011,
        -0.7278916835784912
      ],
      "type": "VEC3"
    },
    {
      "bufferView": 10,
      "componentType": 5126,
      "count": 136,
      "max": [
        1,
        0.9900000095367432
      ],
      "min": [
        0,
        0
      ],
      "type": "VEC2"
    },
    {
      "bufferView": 11,
      "componentType": 5123,
      "count": 384,
      "max": [
        135
      ],
      "min": [
        0
      ],
      "type": "SCALAR"
    },
    {
      "bufferView": 12,
      "componentType": 5126,
      "count": 50,
      "max": [
        -0.4929366707801819,
        1,
        0.8634005188941956
      ],
      "min": [
        -0.9971049427986145,
        -0.8883679509162903,
        -0.8634005188941956
      ],
      "type": "VEC3"
    },
    {
      "bufferView": 13,
      "componentType": 5126,
      "count": 50,
      "max": [
        0.5071957111358643,
        0.6857031583786011,
        0.895015299320221
      ],
      "min": [
        -0.7278916835784912,
        -0.9883959889411926,
        -0.895015299320221
      ],
      "type": "VEC3"
    },
    {
      "bufferView": 14,
      "componentType": 5126,
      "count": 50,
      "max": [
        0.41704797744750977,
        0.9572161436080933
      ],
      "min": [
        0.01000000536441803,
        0
      ],
      "type": "VEC2"
    },
    {
      "bufferView": 15,
      "componentType": 5123,
      "count": 132,
      "max": [
        49
      ],
      "min": [
        0
      ],
      "type": "SCALAR"
    }
  ],
  "materials": [
    {
      "pbrMetallicRoughness": {
        "baseColorFactor": [
          0,
          0,
          0,
          1
        ],
        "metallicFactor": 1,
        "roughnessFactor": 1
      },
      "emissiveFactor": [
        0.0517616868019104,
        0.2920941114425659,
        1
      ],
      "doubleSided": true,
      "name": "Material.009",
      "extensions": {
        "KHR_materials_emissive_strength": {
          "emissiveStrength": 11.82
        }
      }
    },
    {
      "pbrMetallicRoughness": {
        "baseColorFactor": [
          0.030034925788640976,
          0.030034925788640976,
          0.030034925788640976,
          1
        ],
        "metallicFactor": 0.9126983880996704,
        "roughnessFactor": 1
      },
      "doubleSided": true,
      "name": "Material.003",
      "extensions": {
        "KHR_materials_emissive_strength": {
          "emissiveStrength": 3.32
        }
      }
    },
    {
      "pbrMetallicRoughness": {
        "baseColorFactor": [
          0.030034925788640976,
          0.030034925788640976,
          0.030034925788640976,
          1
        ],
        "metallicFactor": 0.9126983880996704,
        "roughnessFactor": 1
      },
      "doubleSided": true,
      "name": "Material.004"
    }
  ],
  "meshes": [
    {
      "primitives": [
        {
          "mode": 4,
          "attributes": {
            "POSITION": 0,
            "NORMAL": 1,
            "TEXCOORD_0": 2
          },
          "indices": 3,
          "material": 0
        }
      ]
    },
    {
      "primitives": [
        {
          "mode": 4,
          "attributes": {
            "POSITION": 4,
            "NORMAL": 5,
            "TEXCOORD_0": 6
          },
          "indices": 7,
          "material": 1
        }
      ]
    },
    {
      "primitives": [
        {
          "mode": 4,
          "attributes": {
            "POSITION": 8,
            "NORMAL": 9,
            "TEXCOORD_0": 10
          },
          "indices": 11,
          "material": 1
        }
      ]
    },
    {
      "primitives": [
        {
          "mode": 4,
          "attributes": {
            "POSITION": 12,
            "NORMAL": 13,
            "TEXCOORD_0": 14
          },
          "indices": 15,
          "material": 2
        }
      ]
    }
  ],
  "extensionsUsed": [
    "KHR_materials_emissive_strength"
  ]
}