{
  "asset": {
    "version": "2.0",
    "generator": "THREE.GLTFExporter r180"
  },
  "scenes": [
    {
      "name": "Scene",
      "nodes": [
        0
      ]
    }
  ],
  "scene": 0,
  "nodes": [
    {
      "name": "DatabaseHaftDown.glb",
      "children": [
        1,
        2,
        3,
        4
      ]
    },
    {
      "name": "GlowBottom",
      "extras": {
        "name": "GlowBottom"
      },
      "mesh": 0
    },
    {
      "matrix": [
        1.100000023841858,
        0,
        0,
        0,
        0,
        0.3499999940395355,
        0,
        0,
        0,
        0,
        1.100000023841858,
        0,
        0,
        -1,
        0,
        1
      ],
      "name": "Cylinder3Bottom",
      "extras": {
        "name": "Cylinder3Bottom"
      },
      "mesh": 1
    },
    {
      "matrix": [
        1.100000023841858,
        0,
        0,
        0,
        0,
        0.3499999940395355,
        0,
        0,
        0,
        0,
        1.100000023841858,
        0,
        0,
        1,
        0,
        1
      ],
      "name": "Cylinder2Bottom",
      "extras": {
        "name": "Cylinder2Bottom"
      },
      "mesh": 2
    },
    {
      "matrix": [
        1.100000023841858,
        0,
        0,
        0,
        0,
        0.3499999940395355,
        0,
        0,
        0,
        0,
        1.100000023841858,
        0,
        0,
        0,
        0,
        1
      ],
      "name": "Cylinder1Bottom",
      "extras": {
        "name": "Cylinder1Bottom"
      },
      "mesh": 3
    }
  ],
  "bufferViews": [
    {
      "buffer": 0,
      "byteOffset": 0,
      "byteLength": 1464,
      "target": 34962,
      "byteStride": 12
    },
    {
      "buffer": 0,
      "byteOffset": 1464,
      "byteLength": 1464,
      "target": 34962,
      "byteStride": 12
    },
    {
      "buffer": 0,
      "byteOffset": 2928,
      "byteLength": 976,
      "target": 34962,
      "byteStride": 8
    },
    {
      "buffer": 0,
      "byteOffset": 3904,
      "byteLength": 672,
      "target": 34963
    },
    {
      "buffer": 0,
      "byteOffset": 4576,
      "byteLength": 1632,
      "target": 34962,
      "byteStride": 12
    },
    {
      "buffer": 0,
      "byteOffset": 6208,
      "byteLength": 1632,
      "target": 34962,
      "byteStride": 12
    },
    {
      "buffer": 0,
      "byteOffset": 7840,
      "byteLength": 1088,
      "target": 34962,
      "byteStride": 8
    },
    {
      "buffer": 0,
      "byteOffset": 8928,
      "byteLength": 768,
      "target": 34963
    },
    {
      "buffer": 0,
      "byteOffset": 9696,
      "byteLength": 600,
      "target": 34962,
      "byteStride": 12
    },
    {
      "buffer": 0,
      "byteOffset": 10296,
      "byteLength": 600,
      "target": 34962,
      "byteStride": 12
    },
    {
      "buffer": 0,
      "byteOffset": 10896,
      "byteLength": 400,
      "target": 34962,
      "byteStride": 8
    },
    {
      "buffer": 0,
      "byteOffset": 11296,
      "byteLength": 264,
      "target": 34963
    },
    {
      "buffer": 0,
      "byteOffset": 11560,
      "byteLength": 1080,
      "target": 34962,
      "byteStride": 12
    },
    {
      "buffer": 0,
      "byteOffset": 12640,
      "byteLength": 1080,
      "target": 34962,
      "byteStride": 12
    },
    {
      "buffer": 0,
      "byteOffset": 13720,
      "byteLength": 720,
      "target": 34962,
      "byteStride": 8
    },
    {
      "buffer": 0,
      "byteOffset": 14440,
      "byteLength": 480,
      "target": 34963
    }
  ],
  "buffers": [
    {
      "byteLength": 14920,
      "uri": "data:application/octet-stream;base64,"
    }
  ],
  "accessors": [
    {
      "bufferView": 0,
      "componentType": 5126,
      "count": 122,
      "max": [
        1,
        1,
        1
      ],
      "min": [
        -0.8390997052192688,
        -1,
        -1
      ],
      "type": "VEC3"
    },
    {
      "bufferView": 1,
      "componentType": 5126,
      "count": 122,
      "max": [
        0.930900514125824,
        0.6856994032859802,
        0.8041234016418457
      ],
      "min": [
        -0.6052027940750122,
        -0.9462437033653259,
        -0.8041234016418457
      ],
      "type": "VEC3"
    },
    {
      "bufferView": 2,
      "componentType": 5126,
      "count": 122,
      "max": [
        1,
        0.9900000095367432
      ],
      "min": [
        0,
        0
      ],
      "type": "VEC2"
    },
    {
      "bufferView": 3,
      "componentType": 5123,
      "count": 336,
      "max": [
        121
      ],
      "min": [
        0
      ],
      "type": "SCALAR"
    },
    {
      "bufferView": 4,
      "componentType": 5126,
      "count": 136,
      "max": [
        0.9969356060028076,
        1,
        1
      ],
      "min": [
        -1.0030643939971924,
        -1,
        -1
      ],
      "type": "VEC3"
    },
    {
      "bufferView": 5,
      "componentType": 5126,
      "count": 136,
      "max": [
        0.7278916835784912,
        0.7011001706123352,
        0.9213804602622986
      ],
      "min": [
        -0.9233784079551697,
        -0.6857031583786011,
        -0.9213804602622986
      ],
      "type": "VEC3"
    },
    {
      "bufferView": 6,
      "componentType": 5126,
      "count": 136,
      "max": [
        1,
        0.9900000095367432
      ],
      "min": [
        0,
        0
      ],
      "type": "VEC2"
    },
    {
      "bufferView": 7,
      "componentType": 5123,
      "count": 384,
      "max": [
        135
      ],
      "min": [
        0
      ],
      "type": "SCALAR"
    },
    {
      "bufferView": 8,
      "componentType": 5126,
      "count": 50,
      "max": [
        0.9973917603492737,
        0.8883680105209351,
        0.863400399684906
      ],
      "min": [
        0.49322348833084106,
        -1,
        -0.8634005188941956
      ],
      "type": "VEC3"
    },
    {
      "bufferView": 9,
      "componentType": 5126,
      "count": 50,
      "max": [
        0.9915541410446167,
        -0.12969399988651276,
        0.6052027940750122
      ],
      "min": [
        0.40440183877944946,
        -0.6857031583786011,
        -0.6052027940750122
      ],
      "type": "VEC3"
    },
    {
      "bufferView": 10,
      "componentType": 5126,
      "count": 50,
      "max": [
        0.9900000095367432,
        0.9572160840034485
      ],
      "min": [
        0.582952082157135,
        0.027907967567443848
      ],
      "type": "VEC2"
    },
    {
      "bufferView": 11,
      "componentType": 5123,
      "count": 132,
      "max": [
        49
      ],
      "min": [
        0
      ],
      "type": "SCALAR"
    },
    {
      "bufferView": 12,
      "componentType": 5126,
      "count": 90,
      "max": [
        1,
        1,
        1
      ],
      "min": [
        -0.2692326009273529,
        -1,
        -1
      ],
      "type": "VEC3"
    },
    {
      "bufferView": 13,
      "componentType": 5126,
      "count": 90,
      "max": [
        0.7767096161842346,
        0.6857031583786011,
        0.7515032887458801
      ],
      "min": [
        -0.1381998360157013,
        -0.7942102551460266,
        -0.7515032887458801
      ],
      "type": "VEC3"
    },
    {
      "bufferView": 14,
      "componentType": 5126,
      "count": 90,
      "max": [
        1,
        0.9900000095367432
      ],
      "min": [
        0,
        0
      ],
      "type": "VEC2"
    },
    {
      "bufferView": 15,
      "componentType": 5123,
      "count": 240,
      "max": [
        89
      ],
      "min": [
        0
      ],
      "type": "SCALAR"
    }
  ],
  "materials": [
    {
      "pbrMetallicRoughness": {
        "baseColorFactor": [
          0,
          0,
          0,
          1
        ],
        "metallicFactor": 1,
        "roughnessFactor": 1
      },
      "emissiveFactor": [
        0.0517616868019104,
        0.2920941114425659,
        1
      ],
      "doubleSided": true,
      "name": "Material.002",
      "extensions": {
        "KHR_materials_emissive_strength": {
          "emissiveStrength": 8.100000381469727
        }
      }
    },
    {
      "pbrMetallicRoughness": {
        "baseColorFactor": [
          0.030034925788640976,
          0.030034925788640976,
          0.030034925788640976,
          1
        ],
        "metallicFactor": 0.9126983880996704,
        "roughnessFactor": 1
      },
      "doubleSided": true,
      "name": "Material.005"
    }
  ],
  "meshes": [
    {
      "primitives": [
        {
          "mode": 4,
          "attributes": {
            "POSITION": 0,
            "NORMAL": 1,
            "TEXCOORD_0": 2
          },
          "indices": 3,
          "material": 0
        }
      ]
    },
    {
      "primitives": [
        {
          "mode": 4,
          "attributes": {
            "POSITION": 4,
            "NORMAL": 5,
            "TEXCOORD_0": 6
          },
          "indices": 7,
          "material": 1
        }
      ]
    },
    {
      "primitives": [
        {
          "mode": 4,
          "attributes": {
            "POSITION": 8,
            "NORMAL": 9,
            "TEXCOORD_0": 10
          },
          "indices": 11,
          "material": 1
        }
      ]
    },
    {
      "primitives": [
        {
          "mode": 4,
          "attributes": {
            "POSITION": 12,
            "NORMAL": 13,
            "TEXCOORD_0": 14
          },
          "indices": 15,
          "material": 1
        }
      ]
    }
  ],
  "extensionsUsed": [
    "KHR_materials_emissive_strength"
  ]
}